<svg id="Layer_1" enable-background="new 0 0 512 512" height="512" viewBox="0 0 512 512" width="512" xmlns="http://www.w3.org/2000/svg"><g><path d="m122.53 79.37c39.67-30.87 87.26-47.19 137.64-47.19 43.59 0 85.1 12.23 121.19 35.53l-31.05 3.98c-4.39.56-7.49 4.58-6.93 8.97.52 4.04 3.97 7 7.94 7 .34 0 .68-.02 1.03-.07l51.39-6.6c2.39-.31 4.52-1.67 5.79-3.72s1.55-4.56.77-6.84l-16.86-48.97c-1.44-4.19-6-6.41-10.19-4.97s-6.41 6-4.97 10.19l8.84 25.68c-37.99-23.77-81.42-36.22-126.97-36.22-53.98 0-104.98 17.49-147.49 50.57-3.49 2.72-4.12 7.76-1.4 11.25 2.74 3.5 7.78 4.13 11.27 1.41z"/><path d="m491.29 279.82c-4.38-.6-8.43 2.47-9.03 6.85-15.09 110.16-110.57 193.24-222.09 193.24-104.72 0-195.28-73.27-218.42-173.44l25.03 18.78c3.54 2.66 8.57 1.94 11.22-1.6 2.66-3.54 1.94-8.57-1.6-11.22l-41.43-31.08c-1.93-1.44-4.4-1.95-6.74-1.37s-4.29 2.18-5.32 4.35l-22.14 46.78c-1.89 4-.19 8.78 3.81 10.68 1.11.52 2.28.77 3.43.77 3 0 5.88-1.69 7.25-4.59l11.66-24.62c11.64 47.34 37.62 90.32 74.73 122.91 43.82 38.48 100.11 59.68 158.53 59.68s114.73-21.19 158.55-59.68c43.42-38.13 71.62-90.48 79.42-147.42.6-4.37-2.47-8.42-6.86-9.02z"/><path d="m350.38 285.03 39.7 23.52c3.7 2.2 8.05 2.81 12.27 1.74 4.21-1.07 7.74-3.7 9.93-7.39 4.46-7.52 1.86-17.65-5.67-22.12l-49.29-29.19c-37.06 2.44-79.38-1.83-116.93-45.94l-38.18 22.46c-17.86 10.53-40.6 6.73-54.05-9.04-5.46-6.35-7.62-14.1-6.21-22.37 1.35-8.21 5.9-14.83 13.14-19.1l58.02-34.16c-11.04-5.39-22.1-4.06-36.19-2.36-12.28 1.48-26.21 3.16-42.9.7-4.48-.67-8.99-1.65-13.82-2.99l-50.56 107.43 18.4 13.19.52.54c7.04 7.37 10.33 18.18 13.5 28.62 1.21 3.98 2.44 8.01 3.86 11.77l7.1-12.11c3.99-6.83 10.43-11.69 18.14-13.71 7.7-2.01 15.7-.92 22.52 3.08 6.82 3.98 11.7 10.42 13.72 18.13.08.32.15.64.23.96 7.63-2.28 16.14-1.53 23.53 2.79 6.81 3.97 11.68 10.4 13.7 18.09.09.33.16.67.24 1 7.62-2.27 16.12-1.52 23.51 2.79 6.82 3.98 11.69 10.4 13.71 18.09.1.36.18.73.26 1.09 7.64-2.31 16.17-1.58 23.57 2.73 6.87 4.02 11.74 10.48 13.75 18.2 2 7.69.9 15.67-3.1 22.47l-11.37 19.3 23.63 14c7.66 4.55 17.61 2.01 22.17-5.66 2.17-3.65 2.78-7.98 1.71-12.18-1.06-4.18-3.64-7.67-7.26-9.85l-16.35-9.68c-3.81-2.26-5.07-7.17-2.81-10.98s7.17-5.07 10.98-2.81l33.93 20.1c7.68 4.56 17.63 2.02 22.2-5.66 4.45-7.5 1.86-17.63-5.66-22.1l-33.82-20.04c-3.81-2.26-5.07-7.17-2.81-10.98s7.18-5.07 10.98-2.81l39.49 23.4c7.68 4.54 17.64 2.01 22.2-5.66 2.17-3.64 2.77-7.96 1.71-12.16-1.08-4.23-3.7-7.77-7.38-9.95 0 0 0 0-.01 0l-36.1-21.39c-3.81-2.26-5.07-7.17-2.81-10.98 2.24-3.82 7.15-5.08 10.96-2.82z"/><path d="m229.69 405.34c6.51 3.8 14.93 1.6 18.77-4.91l14.5-24.61c1.82-3.1 2.32-6.76 1.4-10.3-.93-3.57-3.17-6.55-6.32-8.39-2.15-1.25-4.5-1.84-6.84-1.84-4.71 0-9.33 2.43-11.88 6.78l-.01.01-13.58 22.99-1.04 1.77c-1.75 3.06-2.22 6.65-1.32 10.14.95 3.56 3.19 6.53 6.32 8.36z"/><path d="m184.8 396.12c6.53 3.82 14.94 1.62 18.76-4.89l7.24-12.38c.06-.1.11-.21.17-.31l.95-1.61 13.49-23.05c1.83-3.13 2.32-6.8 1.39-10.36-.93-3.54-3.16-6.5-6.28-8.32-2.17-1.27-4.55-1.87-6.9-1.87-4.71 0-9.29 2.42-11.82 6.75v.01l-21.88 37.35c-1.83 3.12-2.32 6.8-1.39 10.35.92 3.56 3.15 6.52 6.27 8.33z"/><path d="m147.35 374.24c3.15 1.85 6.84 2.35 10.39 1.41 3.55-.93 6.5-3.16 8.32-6.29l21.9-37.36c1.83-3.12 2.32-6.8 1.39-10.35-.93-3.54-3.16-6.5-6.28-8.32-6.52-3.81-14.94-1.61-18.76 4.9l-21.84 37.33c-1.84 3.12-2.33 6.79-1.41 10.33.92 3.56 3.16 6.52 6.29 8.35z"/><path d="m52.2 245.62c.02-.04.04-.08.06-.12l62.14-132-38.85-18.26-66.8 141.85 38.87 18.25zm-14.42-9.14c-4.83 0-8.74-3.91-8.74-8.7 0-4.82 3.92-8.73 8.74-8.73 4.8 0 8.71 3.91 8.71 8.73 0 4.79-3.92 8.7-8.71 8.7z"/><path d="m151.88 299.8c-.93-3.55-3.17-6.52-6.3-8.35-2.11-1.23-4.45-1.86-6.85-1.86-1.17 0-2.36.15-3.53.46-3.56.93-6.53 3.16-8.35 6.29v.01l-14.18 24.2c-.06.11-.12.21-.19.32l-7.52 12.83c-1.82 3.12-2.32 6.8-1.39 10.35.93 3.54 3.16 6.5 6.28 8.32 6.52 3.81 14.94 1.61 18.76-4.9l21.84-37.33c1.86-3.14 2.36-6.8 1.43-10.34z"/><path d="m415.32 267.32c15.77-3.48 28.28-8.91 37.99-16.49l-55.26-117.35c-11.33 4.08-23.41 7.66-36.16 8.9-13.01 1.26-28.94-.8-45.8-2.99-24.77-3.22-52.85-6.86-67.83 1.95l-16.12 9.49c-.02.01-.04.02-.06.03l-68.83 40.52c-3.1 1.83-4.9 4.43-5.48 7.95-.61 3.55.24 6.58 2.57 9.29 8.41 9.86 22.59 12.22 33.74 5.66l44.1-25.95c3.46-2.04 7.89-1.2 10.37 1.96 34.73 44.24 73.45 47.83 110.11 45.12 1.64-.12 3.27.26 4.68 1.1l51.45 30.46c.18.13.35.24.53.35z"/><path d="m473.15 255.34 38.85-18.25-66.77-141.85-38.87 18.25zm9.85-36.29c4.8 0 8.71 3.91 8.71 8.73 0 4.79-3.92 8.7-8.71 8.7s-8.71-3.91-8.71-8.7c0-4.82 3.91-8.73 8.71-8.73z"/></g></svg>