<svg id="Layer_6" enable-background="new 0 0 64 64" height="512" viewBox="0 0 64 64" width="512" xmlns="http://www.w3.org/2000/svg"><g><path d="m49 45v-1c0-2.757-2.243-5-5-5h-6c-2.757 0-5 2.243-5 5v1h2v-1c0-1.654 1.346-3 3-3h6c1.654 0 3 1.346 3 3v1z"/><path d="m20.884 39.702-.553-2.05c-.738.225-1.52.348-2.331.348s-1.593-.123-2.331-.349l-.553 2.05 2.884 2.885z"/><path d="m18.382 49 1.386-2.773-1.768-1.061-1.768 1.061 1.386 2.773z"/><path d="m10 30 .023-4h-.023c-1.103 0-2 .897-2 2s.897 2 2 2z"/><path d="m24 24.81c0-.516-.387-.943-.899-.994l-3.225-.323c-1.7-.17-3.188-.973-4.242-2.163-1.757.567-3.143 2.001-3.634 3.799v4.871c0 3.309 2.691 6 6 6s6-2.691 6-6zm-9 1.19c.552 0 1 .448 1 1s-.448 1-1 1-1-.448-1-1 .448-1 1-1zm6.789 5.658c-.722 1.445-2.174 2.342-3.789 2.342s-3.067-.897-3.789-2.342l-.105-.211 1.789-.895.105.212c.381.762 1.147 1.236 2 1.236s1.619-.474 2-1.236l.105-.211 1.789.895zm-.789-3.658c-.552 0-1-.448-1-1s.448-1 1-1 1 .448 1 1-.448 1-1 1z"/><path d="m23.594 41.28-1.251-.209-2.73 2.73 2.783 1.671z"/><path d="m8.597 24.267c.438-.165.908-.267 1.403-.267h.269c.736-2.002 2.299-3.608 4.266-4.398-.345-.798-.535-1.678-.535-2.602h2c0 2.335 1.752 4.27 4.075 4.502l3.224.323c1.26.125 2.254 1.011 2.578 2.175h.198c.47 0 .914.096 1.333.245l.357-1.425c.156-.624.235-1.269.235-1.916 0-4.358-3.546-7.904-7.904-7.904h-4.191c-4.359 0-7.905 3.546-7.905 7.904 0 .646.079 1.292.235 1.916z"/><path d="m26.075 26h-.075v4h.075c1.103 0 2-.897 2-2s-.897-2-2-2z"/><path d="m60.655 17.109-14.609-13.696c-.568-.533-1.523-.533-2.092 0l-14.609 13.696c-.029.028-.042.067-.068.097.227.561.407 1.145.529 1.751.093.025.188.043.287.043h2.907v20h.111c1.263-1.235 2.988-2 4.889-2h6c1.902 0 3.626.765 4.889 2h8.111v-20h2.907c.603 0 1.093-.49 1.093-1.093 0-.302-.126-.592-.345-.798zm-15.56 3.891h-.189c-1.052 0-1.906.854-1.906 1.905 0 .821.523 1.548 1.304 1.809l2.025.676c1.598.532 2.671 2.021 2.671 3.705 0 1.84-1.284 3.378-3 3.789v2.116h-2v-2.117c-1.716-.411-3-1.948-3-3.789v-1.094h2v1.095c0 1.051.854 1.905 1.905 1.905h.189c1.052 0 1.906-.854 1.906-1.905 0-.821-.523-1.548-1.304-1.809l-2.025-.676c-1.598-.532-2.671-2.021-2.671-3.705 0-1.84 1.284-3.378 3-3.789v-2.116h2v2.117c1.716.411 3 1.948 3 3.789l-2 .094v-.095c0-1.051-.854-1.905-1.905-1.905z"/><path d="m12.406 41.28 1.198 4.192 2.783-1.671-2.73-2.73z"/><path d="m30 45h1.27c-.585-.783-1.287-1.477-2.107-2.023-1.021-.68-2.154-1.127-3.363-1.329l-.22-.037-1.976 6.918-2.115-1.269-1.449 2.897 1.807 10.843h5.337c-.112-.314-.184-.648-.184-1v-12c0-1.654 1.346-3 3-3z"/><path d="m45 55v2h-8v-2h-3c-1.958 0-3.728-.81-5-2.111v7.111c0 .552.448 1 1 1h1 21c.552 0 1-.448 1-1v-7.111c-1.272 1.301-3.042 2.111-5 2.111z"/><path d="m17.847 51-1.667 10h3.64l-1.667-10z"/><path d="m39 53h4v2h-4z"/><path d="m52 47h-22c-.552 0-1 .448-1 1 0 2.757 2.243 5 5 5h3v-2h8v2h3c2.757 0 5-2.243 5-5 0-.552-.448-1-1-1z"/><path d="m3 57h4v4h-4z"/><path d="m12.396 48.528-1.976-6.918-.22.037c-1.209.202-2.342.649-3.364 1.329-2.401 1.603-3.836 4.284-3.836 7.17v4.854h4v-6h2v12h5.153l1.807-10.843-1.449-2.897z"/></g></svg>