<svg id="Layer_1" height="512" viewBox="0 0 66 66" width="512" xmlns="http://www.w3.org/2000/svg"><g><g><path d="m3.7 43.6h16.2c.6 0 1 .4 1 1s-.4 1-1 1h-15.6l1.4 4.5c.4 1.3 1.5 2.1 2.9 2.1h48.9c1.3 0 2.5-.9 2.9-2.2l4.6-16.5c.1-.3 0-.6-.2-.9s-.5-.4-.8-.4h-14.3c-.4 0-.8.3-.9.6l-1.8 4.6h-43.9c-.3 0-.6.2-.8.4-.2.3-.2.6-.1.9zm51.1 2h-2c-.6 0-1-.4-1-1s.4-1 1-1h2c.6 0 1 .4 1 1s-.4 1-1 1zm-11.1-2h2c.6 0 1 .4 1 1s-.4 1-1 1h-2c-.6 0-1-.4-1-1s.4-1 1-1zm-9.2 0h2c.6 0 1 .4 1 1s-.4 1-1 1h-2c-.6 0-1-.4-1-1s.5-1 1-1zm-9.1 0h2c.6 0 1 .4 1 1s-.4 1-1 1h-2c-.6 0-1-.4-1-1s.4-1 1-1z"/><path d="m8.2 35.9h16c.3 0 .5-.2.5-.5v-14.6c0-.3-.2-.5-.5-.5h-7v3.5c0 .5-.5 1-1 1-.6 0-1-.5-1-1v-3.5h-7c-.3 0-.5.2-.5.5v14.6c0 .3.2.5.5.5zm4-5.5h3c.5 0 1 .4 1 1 0 .5-.5 1-1 1h-3c-.6 0-1-.5-1-1 0-.6.4-1 1-1z"/><path d="m26.2 35.9h16c.3 0 .5-.2.5-.5v-14.6c0-.3-.2-.5-.5-.5h-7v3.5c0 .5-.5 1-1 1-.6 0-1-.5-1-1v-3.5h-7c-.3 0-.5.2-.5.5v14.6c0 .3.2.5.5.5zm4-5.5h3c.5 0 1 .4 1 1 0 .5-.5 1-1 1h-3c-.6 0-1-.5-1-1 0-.6.4-1 1-1z"/><path d="m26.2 19.3h16c.3 0 .5-.2.5-.5v-14.6c0-.3-.2-.5-.5-.5h-7v3.5c0 .6-.5 1-1 1-.6 0-1-.4-1-1v-3.5h-7c-.3 0-.5.2-.5.5v14.6c0 .3.2.5.5.5zm4-5.5h3c.5 0 1 .4 1 1 0 .5-.5 1-1 1h-3c-.6 0-1-.5-1-1 0-.6.4-1 1-1z"/><path d="m60.9 19.3c0-.6-.5-1-1-1h-2v-4.5h1.5c.5 0 1-.4 1-1s-.5-1-1-1h-1.5v-3h1.5c.5 0 1-.4 1-1s-.5-1-1-1h-1.5v-4.8c0-.6-.5-1-1-1s-1 .4-1 1v4.8h-1.5c-.5 0-1 .4-1 1s.5 1 1 1h1.5v3h-1.5c-.5 0-1 .4-1 1s.5 1 1 1h1.5v4.5h-2c-.5 0-1 .4-1 1v11h8z"/><path d="m64 55c-1.8 0-2.8.6-3.6 1.2-.8.4-1.4.8-2.6.8s-1.8-.4-2.6-.8c-2.4-1.6-4.9-1.6-7.3 0-1.8 1.1-3.3 1.1-5.1 0-2.4-1.6-4.8-1.6-7.3 0-1.8 1.1-3.3 1.1-5.1 0-2.4-1.6-4.8-1.6-7.3 0-1.7 1.1-3.3 1.2-5.1 0-2.4-1.6-4.8-1.6-7.3 0-1.8 1.1-3.3 1.1-5.1 0-.8-.6-1.8-1.2-3.6-1.2-.6 0-1 .4-1 1s.4 1 1 1c1.3 0 1.8.4 2.6.8 2.4 1.6 4.8 1.6 7.3 0 1.8-1.1 3.3-1.1 5.1 0 2.4 1.6 4.8 1.6 7.3 0 1.8-1.1 3.3-1.1 5.1 0 2.4 1.6 4.8 1.6 7.3 0 1.8-1.1 3.3-1.2 5.1 0 2.4 1.6 4.8 1.6 7.3 0 1.7-1.1 3.3-1.2 5.1 0 .8.5 1.8 1.2 3.6 1.2s2.8-.6 3.6-1.2c.7-.5 1.3-.8 2.6-.8.6 0 1-.4 1-1s-.4-1-1-1z"/><path d="m57.8 63c-1.3 0-1.8-.4-2.6-.8-2.4-1.6-4.9-1.6-7.3 0-1.8 1.1-3.3 1.1-5.1 0-2.4-1.6-4.8-1.6-7.3 0-1.8 1.1-3.3 1.1-5.1 0-2.4-1.6-4.8-1.6-7.3 0-1.7 1.1-3.3 1.2-5.1 0-2.4-1.6-4.8-1.6-7.3 0-.7.4-1.3.8-2.5.8-.6 0-1 .4-1 1s.4 1 1 1c1.8 0 2.8-.6 3.6-1.2 1.8-1.1 3.3-1.1 5.1 0 2.4 1.6 4.8 1.6 7.3 0 1.8-1.1 3.3-1.1 5.1 0 2.4 1.6 4.8 1.6 7.3 0 1.8-1.1 3.3-1.2 5.1 0 2.4 1.6 4.8 1.6 7.3 0 1.7-1.1 3.3-1.2 5.1 0 .8.5 1.8 1.2 3.6 1.2.6 0 1-.4 1-1s-.4-1-.9-1z"/></g></g></svg>